<?xml version="1.0" encoding="iso-8859-1"?>
<!-- Generator: Adobe Illustrator 19.0.0, SVG Export Plug-In . SVG Version: 6.00 Build 0)  -->
<svg version="1.1" id="Capa_1" xmlns="http://www.w3.org/2000/svg" xmlns:xlink="http://www.w3.org/1999/xlink" x="0px" y="0px"
	 viewBox="0 0 512 512" style="enable-background:new 0 0 512 512;" xml:space="preserve">
<g>
	<g>
		<path d="M257,0C117.105,0,0,113.025,0,255c0,140.513,115.799,257,257,257c142.13,0,255-117.257,255-257C512,114.06,397.95,0,257,0
			z M257,482.2C131.832,482.2,29.8,380.168,29.8,255C29.8,130.935,131.832,29.8,257,29.8c124.065,0,225.2,101.135,225.2,225.2
			C482.2,380.168,381.065,482.2,257,482.2z"/>
	</g>
</g>
<g>
	<g>
		<path d="M377,210h-75v-75c0-24.813-20.187-45-45-45s-45,20.187-45,45v75h-77c-24.813,0-45,20.187-45,45s20.187,45,45,45h77v77
			c0,24.813,20.187,45,45,45s45-20.187,45-45v-77h75c24.813,0,45-20.187,45-45S401.813,210,377,210z M377,270h-90
			c-8.284,0-15,6.716-15,15v92c0,8.271-6.729,15-15,15s-15-6.729-15-15v-92c0-8.284-6.716-15-15-15h-92c-8.271,0-15-6.729-15-15
			s6.729-15,15-15h92c8.284,0,15-6.716,15-15v-90c0-8.271,6.729-15,15-15s15,6.729,15,15v90c0,8.284,6.716,15,15,15h90
			c8.271,0,15,6.729,15,15S385.271,270,377,270z"/>
	</g>
</g>
<g>
</g>
<g>
</g>
<g>
</g>
<g>
</g>
<g>
</g>
<g>
</g>
<g>
</g>
<g>
</g>
<g>
</g>
<g>
</g>
<g>
</g>
<g>
</g>
<g>
</g>
<g>
</g>
<g>
</g>
</svg>
