<svg xmlns="http://www.w3.org/2000/svg" xmlns:xlink="http://www.w3.org/1999/xlink" version="1.1" x="0px" y="0px" viewBox="0 0 91 113.75" enable-background="new 0 0 91 91" xml:space="preserve"><g><path d="M74.677,14.058C64.663,6.691,52.163,3.937,40.233,1.406c-2.537-0.533-4.166,1.672-4.102,3.635   c-3.352,0.535-6.59,1.473-9.748,2.826c-8.371,3.592-15.311,9.932-19.65,17.953c-8.705,16.084-6.867,37.206,6.264,50.368   C24.786,88,43.544,92.244,59.368,87.146c9.236-2.977,17.506-8.713,22.979-16.783c5.809-8.568,8.813-19.949,7.852-30.26   C89.188,29.304,83.304,20.402,74.677,14.058z M81.339,59.758c-3.316,8.348-9.469,14.918-17.416,19.037   c-13.172,6.824-29.604,5.592-41.771-2.822c-13.156-9.1-17.447-25.932-12.85-40.872c2.691-8.744,8.471-15.744,16.068-20.727   c3.697-2.426,7.768-4.211,12.01-5.455c0.977-0.287,1.998-0.563,3.039-0.818c16.107,3.076,35.314,7.68,42.189,24.434   C86.151,41.169,84.7,51.293,81.339,59.758z"/><path d="M70.417,42.111c-6.805-0.129-13.617-0.031-20.426,0.002c-0.031-2.559-0.105-5.117-0.176-7.68   c-0.119-4.211,0.35-9.078-1.023-13.092c-0.457-1.338-2.262-1.338-2.721,0c-1.332,3.885-0.932,8.553-1.133,12.633   c-0.137,2.721-0.297,5.439-0.418,8.164c-2.955,0.023-5.91,0.105-8.863,0.188c-4.271,0.115-9.211-0.363-13.283,1.016   c-1.338,0.453-1.338,2.266,0,2.723c3.939,1.336,8.672,0.926,12.805,1.125c3.049,0.146,6.096,0.322,9.145,0.447   c-0.238,6.828-0.496,13.664-0.367,20.494c0.07,3.9,5.99,3.908,6.064,0c0.133-6.762,0.025-13.533-0.004-20.299   c6.797,0.232,13.604,0.471,20.4,0.348C74.319,48.107,74.327,42.185,70.417,42.111z"/></g><text x="0" y="106" fill="#000000" font-size="5px" font-weight="bold" font-family="'Helvetica Neue', Helvetica, Arial-Unicode, Arial, Sans-serif">Created by BomSymbols</text><text x="0" y="111" fill="#000000" font-size="5px" font-weight="bold" font-family="'Helvetica Neue', Helvetica, Arial-Unicode, Arial, Sans-serif">from the Noun Project</text></svg>